<svg version="1.1" xmlns="http://www.w3.org/2000/svg" viewBox="-258.0479995727539 -1075.2000610351563 5497.85654296875 1616.89609375"><desc>Created with Snap</desc><defs></defs><g><rect x="-258.0479995727539" y="-1075.2000610351563" width="5497.85654296875" height="1616.89609375" fill="#5c0a27" style=""></rect><g><g transform="matrix(1.024,0,0,-1.024,0,0)"><path d="M102 138L102 69Q169 37 272 37Q375 37 427 69Q479 102 479 161Q479 221 430 250Q381 279 274 299Q167 320 113 354Q60 388 60 461Q60 618 293 618Q417 618 498 573Q513 564 513 552L513 470Q513 460 505 453Q497 447 486 447Q475 447 467 453Q459 460 459 470L459 539Q390 571 295 571Q201 571 157 544Q114 517 114 461Q114 408 170 382Q208 363 272 349Q337 336 364 329Q391 322 427 307Q463 293 483 275Q503 257 518 227Q533 198 533 160Q533 82 467 36Q402 -10 280 -10Q224 -10 159 2Q94 15 61 36Q48 44 48 56L48 138Q48 148 56 154Q64 161 75 161Q86 161 94 154Q102 148 102 138ZM887 561L734 561L734 47L887 47Q1003 47 1068 114Q1134 182 1134 302Q1134 423 1067 492Q1000 561 887 561ZM680 23L680 561L620 561Q610 561 603 567Q597 574 597 584Q597 594 603 601Q610 608 620 608L887 608Q1023 608 1105 525Q1188 443 1188 303Q1188 163 1107 81Q1026 0 887 0L706 0Q680 0 680 23ZM1696 237L1550 537L1405 237L1696 237ZM1465 608L1554 608Q1570 608 1576 596L1859 24Q1861 20 1861 15Q1861 -2 1845 -8Q1839 -10 1834 -10Q1817 -10 1811 3L1718 191L1383 191L1290 3Q1281 -17 1256 -8Q1240 -2 1240 14Q1240 18 1242 23L1508 561L1465 561Q1455 561 1448 567Q1442 574 1442 584Q1442 594 1448 601Q1455 608 1465 608ZM2203 96Q2211 108 2219 108Q2228 108 2237 104Q2251 98 2251 87Q2251 77 2248 72Q2197 -10 2086 -10Q2001 -10 1950 47Q1899 105 1899 189Q1899 273 1952 328Q2006 384 2085 384Q2165 384 2224 347Q2236 339 2236 328L2236 244Q2236 234 2228 227Q2220 221 2209 221Q2198 221 2190 227Q2182 234 2182 244L2182 315Q2142 338 2086 338Q2030 338 1991 296Q1952 254 1952 187Q1952 121 1989 78Q2027 36 2086 36Q2164 36 2203 96ZM2601 136L2601 155Q2535 173 2488 173Q2442 173 2412 155Q2383 137 2383 104Q2383 72 2402 54Q2421 36 2454 36Q2546 36 2601 136ZM2681 47L2720 47Q2730 47 2736 40Q2743 33 2743 23Q2743 13 2736 6Q2730 0 2720 0L2676 0Q2640 0 2620 16Q2601 32 2601 61Q2601 66 2602 72Q2549 -10 2448 -10Q2392 -10 2360 20Q2329 50 2329 103Q2329 157 2371 187Q2414 218 2477 218Q2541 218 2601 197L2601 266Q2601 314 2566 328Q2539 338 2491 338Q2444 338 2404 322L2404 259Q2404 249 2396 242Q2388 236 2377 236Q2366 236 2358 242Q2350 249 2350 259L2350 335Q2350 348 2363 355Q2412 384 2493 384Q2574 384 2614 357Q2654 331 2654 266L2654 66Q2654 47 2681 47ZM2957 338Q2900 338 2866 297Q2832 256 2832 186Q2832 116 2865 76Q2899 36 2957 36Q3041 36 3091 131L3091 278Q3065 303 3028 320Q2992 338 2957 338ZM3091 331L3091 703L3025 703Q3015 703 3008 709Q3002 716 3002 726Q3002 736 3008 743Q3015 750 3025 750L3118 750Q3129 750 3137 743Q3145 736 3145 726L3145 66Q3145 47 3165 47L3211 47Q3221 47 3227 40Q3234 34 3234 24Q3234 14 3227 7Q3221 0 3211 0L3158 0Q3093 0 3095 71Q3073 37 3037 13Q3002 -10 2957 -10Q2868 -10 2823 47Q2779 104 2779 188Q2779 272 2825 328Q2872 384 2953 384Q3034 384 3091 331ZM3589 220Q3586 274 3557 306Q3529 338 3475 338Q3422 338 3386 305Q3350 273 3341 220L3589 220ZM3591 96Q3598 108 3607 108Q3616 108 3625 103Q3634 99 3637 89Q3641 80 3636 72Q3585 -10 3474 -10Q3386 -10 3335 46Q3285 103 3285 189Q3285 275 3337 329Q3389 384 3474 384Q3559 384 3600 333Q3642 282 3642 197Q3642 174 3616 174L3339 173Q3343 111 3379 73Q3416 36 3474 36Q3552 36 3591 96ZM4319 276L4319 66Q4319 47 4346 47L4385 47Q4395 47 4401 40Q4408 33 4408 23Q4408 13 4401 6Q4395 0 4385 0L4346 0Q4265 0 4265 65L4265 276Q4265 338 4207 338Q4129 338 4078 251L4078 13Q4078 3 4070 -4Q4062 -10 4051 -10Q4040 -10 4032 -4Q4024 3 4024 13L4024 276Q4024 338 3966 338Q3921 338 3890 315Q3860 292 3832 243L3832 13Q3832 3 3824 -4Q3816 -10 3805 -10Q3794 -10 3786 -4Q3778 3 3778 13L3778 308Q3778 327 3759 327L3712 327Q3702 327 3695 333Q3689 340 3689 350Q3689 360 3695 367Q3702 374 3712 374L3766 374Q3828 374 3828 306Q3859 346 3890 365Q3922 384 3967 384Q4053 384 4073 312Q4103 348 4134 366Q4165 384 4212 384Q4259 384 4289 356Q4319 329 4319 276ZM4398 -180L4430 -183Q4479 -183 4510 -142Q4534 -111 4563 -51L4597 19L4434 349Q4430 358 4434 367Q4439 376 4448 380Q4458 385 4467 385Q4477 385 4484 370L4625 74L4766 370Q4773 385 4782 385Q4806 385 4815 367Q4817 362 4817 357Q4817 353 4815 349L4611 -71Q4592 -111 4580 -131Q4569 -150 4547 -178Q4504 -229 4429 -229Q4408 -229 4397 -226Q4375 -221 4378 -201Q4381 -180 4398 -180Z" fill="#ffffff" style=""></path></g></g></g></svg>